<?xml version="1.0" encoding="utf-8"?>
<!-- Generator: Adobe Illustrator 18.0.0, SVG Export Plug-In . SVG Version: 6.00 Build 0)  -->
<!DOCTYPE svg PUBLIC "-//W3C//DTD SVG 1.1//EN" "http://www.w3.org/Graphics/SVG/1.1/DTD/svg11.dtd">
<svg version="1.1" id="Layer_1" xmlns="http://www.w3.org/2000/svg" xmlns:xlink="http://www.w3.org/1999/xlink" x="0px" y="0px"
	 viewBox="0 0 500 180" enable-background="new 0 0 500 180" xml:space="preserve">
<g>
	<path fill="#00A651" d="M-664.7,89.5l-14.7,25.9l14.7,25.6v0.2c2.2,3.3,3.3,7,3.3,10.7v16c0,0.7-0.4,1.1-0.9,1.1h-0.4
		c-0.4,0-0.9-0.4-0.9-1.1v-16c0-1.7-0.4-3.7-1.1-5.5v-0.4l-16-28.3l-16,28.3l-0.2,0.4c-0.7,1.8-0.9,3.7-0.9,5.5v16
		c0,0.7-0.4,1.1-0.9,1.1h-0.4c-0.7,0-1.1-0.4-1.1-1.1v-16c0-3.7,1.1-7.5,3.3-10.7l0.2-0.2l14.5-25.6l-14.5-25.9l-0.2-0.2
		c-2.2-3.1-3.3-6.8-3.3-10.7V62.3c0-0.7,0.4-1.1,1.1-1.1h0.4c0.4,0,0.9,0.4,0.9,1.1v16.2c0,2,0.2,3.7,0.9,5.5l0.2,0.7l16,28.1
		l16-28.1V84c0.7-1.8,1.1-3.5,1.1-5.5V62.3c0-0.7,0.4-1.1,0.9-1.1h0.4c0.4,0,0.9,0.4,0.9,1.1v16.2c0,3.9-1.1,7.7-3.3,10.7V89.5z"/>
	<path fill="#00A651" d="M-745.6,80.3v69.3c0,9.4,7.7,17.1,17.1,17.1c9.4,0,17.1-7.7,17.1-17.1V80.3c0-9.4-7.7-16.7-17.1-16.7
		C-737.9,63.6-745.6,70.9-745.6,80.3 M-748,149.6V80.3c0-10.7,8.8-19.1,19.5-19.1c10.7,0,19.3,8.3,19.3,19.1v69.3
		c0,10.7-8.6,19.5-19.3,19.5C-739.2,169.1-748,160.3-748,149.6"/>
	<path fill="#00A651" d="M-776.6,114.3c0.7,0,1.7-0.1,1.7-0.1c8.4-1,15-8.5,15-17.2V80.6c0-9.4-7.6-17-17-17l-17,0v103h17
		c9.4,0,17-7.6,17-17v-16.4c0-8.6-6.7-15.4-15-16.5c0,0-1.1-0.1-1.7-0.1c-0.7-0.1-1.2-0.3-1.2-0.6v-1.1
		C-777.8,114.6-777.3,114.3-776.6,114.3 M-757.7,80.6V97c0,8.3-5.2,15.8-12.7,18.4c7.4,2.6,12.7,9.5,12.7,17.8v16.4
		c0,10.7-8.5,19.4-19.2,19.4h-18.1c-0.7,0-1.3-0.7-1.3-1V62.8c0-0.9,0.7-1.6,1.3-1.6h18.1C-766.2,61.2-757.7,69.9-757.7,80.6"/>
	<path fill="#0093CB" d="M-966.6,80.7v4.2c0,0.4-0.4,0.9-1.1,0.9h-0.4c-0.4,0-0.9-0.4-0.9-0.9v-4.2c0-9.4-7.7-17.1-17.1-17.1
		c-9.4,0-17.1,7.7-17.1,17.1v68.8c0,9.4,7.7,17.1,17.1,17.1c9.4,0,17.1-7.7,17.1-17.1v-33h-10.3c-0.4,0-0.9-0.4-0.9-0.9v-0.7
		c0-0.4,0.4-0.9,0.9-0.9h11.6c0.7,0,1.1,0.4,1.1,0.9v34.5c0,10.7-8.8,19.5-19.5,19.5c-10.7,0-19.3-8.8-19.3-19.5V80.7
		c0-10.7,8.6-19.5,19.3-19.5C-975.4,61.2-966.6,70-966.6,80.7"/>
	<path fill="#0093CB" d="M-957.1,62.3c0-0.7,0.4-1.1,0.9-1.1h0.4c0.7,0,1.1,0.4,1.1,1.1v104.3h21.5c0.4,0,0.9,0.4,0.9,0.9v0.7
		c0,0.4-0.4,0.9-0.9,0.9H-956c-0.7,0-1.1-0.6-1.1-1.3V62.3z"/>
	<path fill="#0093CB" d="M-926.6,80.3v69.3c0,9.4,7.7,17.1,17.1,17.1c9.4,0,17.1-7.7,17.1-17.1V80.3c0-9.4-7.7-16.7-17.1-16.7
		C-918.9,63.6-926.6,70.9-926.6,80.3 M-929,149.6V80.3c0-10.7,8.8-19.1,19.5-19.1c10.7,0,19.3,8.3,19.3,19.1v69.3
		c0,10.7-8.6,19.5-19.3,19.5C-920.2,169.1-929,160.3-929,149.6"/>
	<path fill="#0093CB" d="M-806.1,62.1v76.1c0,0.2,0,5.3-2.4,9.4l-12.1,21c-0.2,0.2-0.7,0.4-0.9,0.4h-7.9c-0.4,0-0.9-0.2-1.1-0.4
		l-8.1-15l1.3-2.3l8.6,15.6h6.4l11.8-20.4c2-3.7,2.2-8.3,2.2-8.3V62.1c0-0.4,0.2-0.9,0.9-0.9h0.4C-806.5,61.2-806.1,61.7-806.1,62.1
		"/>
	<path fill="#0093CB" d="M-844.5,147.6l-11.8,21c-0.2,0.2-0.7,0.4-1.1,0.4h-7.9c-0.2,0-0.7-0.2-0.9-0.4l-12.1-21
		c-2.4-4.2-2.4-9.2-2.4-9.4V62.1c0-0.4,0.4-0.9,0.9-0.9h0.4c0.7,0,1.1,0.4,1.1,0.9v76.1c0,0,0,4.6,2,8.3l11.8,20.4h6.4l11.6-20.4
		c2.2-4.3,2.2-8.3,2.2-8.3v-22.9c0-0.4,0.4-0.9,0.9-0.9h0.7c0.4,0,0.9,0.4,0.9,0.9v22.2C-842,140.5-842.6,144.4-844.5,147.6z"/>
</g>
<g>
	<path d="M-664.7,261.1l-14.7,25.9l14.7,25.6v0.2c2.2,3.3,3.3,7,3.3,10.7v16c0,0.7-0.4,1.1-0.9,1.1h-0.4c-0.4,0-0.9-0.4-0.9-1.1v-16
		c0-1.7-0.4-3.7-1.1-5.5v-0.4l-16-28.3l-16,28.3l-0.2,0.4c-0.7,1.8-0.9,3.7-0.9,5.5v16c0,0.7-0.4,1.1-0.9,1.1h-0.4
		c-0.7,0-1.1-0.4-1.1-1.1v-16c0-3.7,1.1-7.5,3.3-10.7l0.2-0.2l14.5-25.6l-14.5-25.9l-0.2-0.2c-2.2-3.1-3.3-6.8-3.3-10.7v-16.2
		c0-0.7,0.4-1.1,1.1-1.1h0.4c0.4,0,0.9,0.4,0.9,1.1v16.2c0,2,0.2,3.7,0.9,5.5l0.2,0.7l16,28.1l16-28.1v-0.7c0.7-1.8,1.1-3.5,1.1-5.5
		v-16.2c0-0.7,0.4-1.1,0.9-1.1h0.4c0.4,0,0.9,0.4,0.9,1.1v16.2c0,3.9-1.1,7.7-3.3,10.7V261.1z"/>
	<path d="M-745.6,251.9v69.3c0,9.4,7.7,17.1,17.1,17.1c9.4,0,17.1-7.7,17.1-17.1v-69.3c0-9.4-7.7-16.7-17.1-16.7
		C-737.9,235.2-745.6,242.4-745.6,251.9 M-748,321.1v-69.3c0-10.7,8.8-19.1,19.5-19.1c10.7,0,19.3,8.3,19.3,19.1v69.3
		c0,10.7-8.6,19.5-19.3,19.5C-739.2,340.6-748,331.9-748,321.1"/>
	<path d="M-776.6,285.9c0.7,0,1.7-0.1,1.7-0.1c8.4-1,15-8.5,15-17.2v-16.4c0-9.4-7.6-17-17-17l-17,0v103h17c9.4,0,17-7.6,17-17
		v-16.4c0-8.6-6.7-15.4-15-16.5c0,0-1.1-0.1-1.7-0.1c-0.7-0.1-1.2-0.3-1.2-0.6v-1.1C-777.8,286.2-777.3,285.9-776.6,285.9
		 M-757.7,252.2v16.4c0,8.3-5.2,15.8-12.7,18.4c7.4,2.6,12.7,9.5,12.7,17.8v16.4c0,10.7-8.5,19.4-19.2,19.4h-18.1
		c-0.7,0-1.3-0.7-1.3-1V234.4c0-0.9,0.7-1.6,1.3-1.6h18.1C-766.2,232.8-757.7,241.5-757.7,252.2"/>
	<path d="M-966.6,252.3v4.2c0,0.4-0.4,0.9-1.1,0.9h-0.4c-0.4,0-0.9-0.4-0.9-0.9v-4.2c0-9.4-7.7-17.1-17.1-17.1
		c-9.4,0-17.1,7.7-17.1,17.1v68.8c0,9.4,7.7,17.1,17.1,17.1c9.4,0,17.1-7.7,17.1-17.1v-33h-10.3c-0.4,0-0.9-0.4-0.9-0.9v-0.7
		c0-0.4,0.4-0.9,0.9-0.9h11.6c0.7,0,1.1,0.4,1.1,0.9v34.5c0,10.7-8.8,19.5-19.5,19.5c-10.7,0-19.3-8.8-19.3-19.5v-68.8
		c0-10.7,8.6-19.5,19.3-19.5C-975.4,232.8-966.6,241.6-966.6,252.3"/>
	<path d="M-957.1,233.9c0-0.7,0.4-1.1,0.9-1.1h0.4c0.7,0,1.1,0.4,1.1,1.1v104.3h21.5c0.4,0,0.9,0.4,0.9,0.9v0.7
		c0,0.4-0.4,0.9-0.9,0.9H-956c-0.7,0-1.1-0.6-1.1-1.3V233.9z"/>
	<path d="M-926.6,251.9v69.3c0,9.4,7.7,17.1,17.1,17.1c9.4,0,17.1-7.7,17.1-17.1v-69.3c0-9.4-7.7-16.7-17.1-16.7
		C-918.9,235.2-926.6,242.4-926.6,251.9 M-929,321.1v-69.3c0-10.7,8.8-19.1,19.5-19.1c10.7,0,19.3,8.3,19.3,19.1v69.3
		c0,10.7-8.6,19.5-19.3,19.5C-920.2,340.6-929,331.9-929,321.1"/>
	<path d="M-806.1,233.7v76.1c0,0.2,0,5.3-2.4,9.4l-12.1,21c-0.2,0.2-0.7,0.4-0.9,0.4h-7.9c-0.4,0-0.9-0.2-1.1-0.4l-8.1-15l1.3-2.3
		l8.6,15.6h6.4l11.8-20.4c2-3.7,2.2-8.3,2.2-8.3v-76.1c0-0.4,0.2-0.9,0.9-0.9h0.4C-806.5,232.8-806.1,233.2-806.1,233.7"/>
	<path d="M-844.5,319.2l-11.8,21c-0.2,0.2-0.7,0.4-1.1,0.4h-7.9c-0.2,0-0.7-0.2-0.9-0.4l-12.1-21c-2.4-4.2-2.4-9.2-2.4-9.4v-76.1
		c0-0.4,0.4-0.9,0.9-0.9h0.4c0.7,0,1.1,0.4,1.1,0.9v76.1c0,0,0,4.6,2,8.3l11.8,20.4h6.4l11.6-20.4c2.2-4.3,2.2-8.3,2.2-8.3v-22.9
		c0-0.4,0.4-0.9,0.9-0.9h0.7c0.4,0,0.9,0.4,0.9,0.9V309C-842,312-842.6,316-844.5,319.2z"/>
</g>
<g>
	<path fill="#939598" d="M-664.7,438.8l-14.7,25.9l14.7,25.6v0.2c2.2,3.3,3.3,7,3.3,10.7v16c0,0.7-0.4,1.1-0.9,1.1h-0.4
		c-0.4,0-0.9-0.4-0.9-1.1v-16c0-1.7-0.4-3.7-1.1-5.5v-0.4l-16-28.3l-16,28.3l-0.2,0.4c-0.7,1.8-0.9,3.7-0.9,5.5v16
		c0,0.7-0.4,1.1-0.9,1.1h-0.4c-0.7,0-1.1-0.4-1.1-1.1v-16c0-3.7,1.1-7.5,3.3-10.7l0.2-0.2l14.5-25.6l-14.5-25.9l-0.2-0.2
		c-2.2-3.1-3.3-6.8-3.3-10.7v-16.2c0-0.7,0.4-1.1,1.1-1.1h0.4c0.4,0,0.9,0.4,0.9,1.1v16.2c0,2,0.2,3.7,0.9,5.5l0.2,0.7l16,28.1
		l16-28.1v-0.7c0.7-1.8,1.1-3.5,1.1-5.5v-16.2c0-0.7,0.4-1.1,0.9-1.1h0.4c0.4,0,0.9,0.4,0.9,1.1v16.2c0,3.9-1.1,7.7-3.3,10.7V438.8z
		"/>
	<path fill="#939598" d="M-745.6,429.6v69.3c0,9.4,7.7,17.1,17.1,17.1c9.4,0,17.1-7.7,17.1-17.1v-69.3c0-9.4-7.7-16.7-17.1-16.7
		C-737.9,413-745.6,420.2-745.6,429.6 M-748,498.9v-69.3c0-10.7,8.8-19.1,19.5-19.1c10.7,0,19.3,8.3,19.3,19.1v69.3
		c0,10.7-8.6,19.5-19.3,19.5C-739.2,518.4-748,509.6-748,498.9"/>
	<path fill="#939598" d="M-776.6,463.6c0.7,0,1.7-0.1,1.7-0.1c8.4-1,15-8.5,15-17.2V430c0-9.4-7.6-17-17-17l-17,0v103h17
		c9.4,0,17-7.6,17-17v-16.4c0-8.6-6.7-15.4-15-16.5c0,0-1.1-0.1-1.7-0.1c-0.7-0.1-1.2-0.3-1.2-0.6v-1.1
		C-777.8,463.9-777.3,463.7-776.6,463.6 M-757.7,430v16.4c0,8.3-5.2,15.8-12.7,18.4c7.4,2.6,12.7,9.5,12.7,17.8V499
		c0,10.7-8.5,19.4-19.2,19.4h-18.1c-0.7,0-1.3-0.7-1.3-1V412.1c0-0.9,0.7-1.6,1.3-1.6h18.1C-766.2,410.6-757.7,419.3-757.7,430"/>
	<path fill="#939598" d="M-966.6,430.1v4.2c0,0.4-0.4,0.9-1.1,0.9h-0.4c-0.4,0-0.9-0.4-0.9-0.9v-4.2c0-9.4-7.7-17.1-17.1-17.1
		c-9.4,0-17.1,7.7-17.1,17.1v68.8c0,9.4,7.7,17.1,17.1,17.1c9.4,0,17.1-7.7,17.1-17.1v-33h-10.3c-0.4,0-0.9-0.4-0.9-0.9v-0.7
		c0-0.4,0.4-0.9,0.9-0.9h11.6c0.7,0,1.1,0.4,1.1,0.9v34.5c0,10.7-8.8,19.5-19.5,19.5c-10.7,0-19.3-8.8-19.3-19.5v-68.8
		c0-10.7,8.6-19.5,19.3-19.5C-975.4,410.6-966.6,419.3-966.6,430.1"/>
	<path fill="#939598" d="M-957.1,411.7c0-0.7,0.4-1.1,0.9-1.1h0.4c0.7,0,1.1,0.4,1.1,1.1V516h21.5c0.4,0,0.9,0.4,0.9,0.9v0.7
		c0,0.4-0.4,0.9-0.9,0.9H-956c-0.7,0-1.1-0.6-1.1-1.3V411.7z"/>
	<path fill="#939598" d="M-926.6,429.6v69.3c0,9.4,7.7,17.1,17.1,17.1c9.4,0,17.1-7.7,17.1-17.1v-69.3c0-9.4-7.7-16.7-17.1-16.7
		C-918.9,413-926.6,420.2-926.6,429.6 M-929,498.9v-69.3c0-10.7,8.8-19.1,19.5-19.1c10.7,0,19.3,8.3,19.3,19.1v69.3
		c0,10.7-8.6,19.5-19.3,19.5C-920.2,518.4-929,509.6-929,498.9"/>
	<path fill="#939598" d="M-806.1,411.4v76.1c0,0.2,0,5.3-2.4,9.4l-12.1,21c-0.2,0.2-0.7,0.4-0.9,0.4h-7.9c-0.4,0-0.9-0.2-1.1-0.4
		l-8.1-15l1.3-2.3l8.6,15.6h6.4l11.8-20.4c2-3.7,2.2-8.3,2.2-8.3v-76.1c0-0.4,0.2-0.9,0.9-0.9h0.4
		C-806.5,410.6-806.1,411-806.1,411.4"/>
	<path fill="#939598" d="M-844.5,496.9l-11.8,21c-0.2,0.2-0.7,0.4-1.1,0.4h-7.9c-0.2,0-0.7-0.2-0.9-0.4l-12.1-21
		c-2.4-4.2-2.4-9.2-2.4-9.4v-76.1c0-0.4,0.4-0.9,0.9-0.9h0.4c0.7,0,1.1,0.4,1.1,0.9v76.1c0,0,0,4.6,2,8.3l11.8,20.4h6.4l11.6-20.4
		c2.2-4.3,2.2-8.3,2.2-8.3v-22.9c0-0.4,0.4-0.9,0.9-0.9h0.7c0.4,0,0.9,0.4,0.9,0.9v22.2C-842,489.8-842.6,493.8-844.5,496.9z"/>
</g>
<g>
	<path fill="#00A651" d="M-147.7,171.1c-1.6,0-2.9-1.4-2.9-3.1v-16c0-1.4-0.4-3.1-1-4.8l-0.1-0.3v-0.3l-14-24.8l-14.2,25.2l-0.1,0.3
		c-0.5,1.3-0.7,2.9-0.7,4.7v16c0,1.7-1.3,3.1-2.9,3.1h-0.4c-1.8,0-3.1-1.3-3.1-3.1v-16c0-4.2,1.3-8.3,3.6-11.8l0.1-0.2l0.2-0.2
		l13.8-24.4l-13.8-24.6l-0.1-0.1l-0.1-0.1c-2.4-3.4-3.7-7.5-3.7-11.9V62.3c0-1.8,1.3-3.1,3.1-3.1h0.4c1.6,0,2.9,1.4,2.9,3.1v16.2
		c0,1.9,0.2,3.4,0.8,4.8l0.2,0.5l14.2,24.8l14-24.6v-0.5l0.1-0.3c0.7-1.8,1-3.3,1-4.8V62.3c0-1.7,1.3-3.1,2.9-3.1h0.4
		c1.6,0,2.9,1.4,2.9,3.1v16.2c0,4.2-1.1,8.1-3.3,11.4V90l-14.4,25.3l14.4,25.1v0.2c2.2,3.4,3.3,7.3,3.3,11.3v16
		c0,1.7-1.3,3.1-2.9,3.1H-147.7z"/>
	<path fill="#00A651" d="M-213.5,171.1c-11.9,0-21.5-9.6-21.5-21.5V80.3c0-11.8,9.4-21.1,21.5-21.1c11.9,0,21.3,9.3,21.3,21.1v69.3
		C-192.2,161.4-201.7,171.1-213.5,171.1z M-213.5,65.6c-8.5,0-15.1,6.4-15.1,14.7v69.3c0,8.3,6.8,15.1,15.1,15.1
		c8.3,0,15.1-6.8,15.1-15.1V80.3C-198.4,72.1-205,65.6-213.5,65.6z"/>
	<path fill="#00A651" d="M-280.1,171.1c-1.7,0-3.3-1.5-3.3-3V62.8c0-2,1.5-3.6,3.3-3.6h18.1c11.7,0,21.2,9.6,21.2,21.4V97
		c0,7.5-4,14.5-10,18.4c6.2,3.7,10,10.4,10,17.9v16.4c0,11.8-9.5,21.4-21.2,21.4H-280.1z M-261.9,164.7c8.3,0,15-6.7,15-15v-16.4
		c0-7.3-5.7-13.5-13.2-14.5c-0.3,0-1.1-0.1-1.7-0.1c-2.1-0.2-2.9-1.3-3.1-2.4l0-0.1v-1.3l0-0.1c0.2-1.3,1.4-2.3,3.1-2.4
		c0.7,0,1.6-0.1,1.6-0.1c7.3-0.9,13.1-7.6,13.1-15.2V80.6c0-8.3-6.7-15-15-15l-15,0v99H-261.9z"/>
	<path fill="#0093CB" d="M-471.1,171.1c-11.7,0-21.3-9.6-21.3-21.5V80.7c0-11.9,9.5-21.5,21.3-21.5c11.9,0,21.5,9.6,21.5,21.5v4.2
		c0,1.6-1.4,2.9-3.1,2.9h-0.4c-1.5,0-2.9-1.3-2.9-2.9v-4.2c0-8.3-6.8-15.1-15.1-15.1c-8.3,0-15.1,6.8-15.1,15.1v68.8
		c0,8.3,6.8,15.1,15.1,15.1c8.3,0,15.1-6.8,15.1-15.1v-31h-8.3c-1.5,0-2.9-1.3-2.9-2.9v-0.7c0-1.5,1.3-2.9,2.9-2.9h11.6
		c1.7,0,3.1,1.3,3.1,2.9v34.5C-449.6,161.4-459.3,171.1-471.1,171.1z"/>
	<path fill="#0093CB" d="M-441,171.1c-1.7,0-3.1-1.5-3.1-3.3V62.3c0-1.7,1.3-3.1,2.9-3.1h0.4c1.8,0,3.1,1.3,3.1,3.1v102.3h19.5
		c1.5,0,2.9,1.3,2.9,2.9v0.7c0,1.5-1.3,2.9-2.9,2.9H-441z"/>
	<path fill="#0093CB" d="M-394.5,171.1c-11.9,0-21.5-9.6-21.5-21.5V80.3c0-11.8,9.4-21.1,21.5-21.1c11.9,0,21.3,9.3,21.3,21.1v69.3
		C-373.2,161.4-382.7,171.1-394.5,171.1z M-394.5,65.6c-8.5,0-15.1,6.4-15.1,14.7v69.3c0,8.3,6.8,15.1,15.1,15.1
		c8.3,0,15.1-6.8,15.1-15.1V80.3C-379.4,72.1-386,65.6-394.5,65.6z"/>
	<path fill="#0093CB" d="M-306.5,171.1h-7.9c-0.9,0-1.9-0.4-2.5-1l-0.2-0.2l-7.7-14l3.6-6.4l8.7,15.5h4l11.3-19.4
		c1.7-3.2,1.9-7.4,1.9-7.4l0-76c0-1.7,1.2-2.9,2.9-2.9h0.4c1.5,0,2.9,1.3,2.9,2.9v76.1c0,0.6-0.1,5.9-2.7,10.4l-12.2,21.3l-0.2,0.2
		C-304.6,170.5-305.6,171.1-306.5,171.1z"/>
	<path fill="#0093CB" d="M-350.3,171.1c-0.9,0-1.8-0.5-2.3-1l-0.2-0.2l-12.2-21.3c-2.6-4.5-2.7-9.8-2.7-10.4V62.1
		c0-1.5,1.3-2.9,2.9-2.9h0.4c1.7,0,3.1,1.3,3.1,2.9v76.1c0,0,0,4.2,1.7,7.4l11.2,19.3h4l11-19.4c1.9-3.7,1.9-7.3,1.9-7.3v-22.9
		c0-1.5,1.3-2.9,2.9-2.9h0.7c1.6,0,2.9,1.3,2.9,2.9v22.2l0,0.1c-0.2,3-0.7,7.5-2.9,11.1l-11.9,21.2l-0.2,0.2c-0.6,0.6-1.6,1-2.5,1
		H-350.3z"/>
</g>
<g>
	<path d="M-147.7,344.6c-1.6,0-2.9-1.4-2.9-3.1v-16c0-1.4-0.4-3.1-1-4.8l-0.1-0.3v-0.3l-14-24.8l-14.2,25.2l-0.1,0.3
		c-0.5,1.3-0.7,2.9-0.7,4.7v16c0,1.7-1.3,3.1-2.9,3.1h-0.4c-1.8,0-3.1-1.3-3.1-3.1v-16c0-4.2,1.3-8.3,3.6-11.8l0.1-0.2l0.2-0.2
		l13.8-24.4l-13.8-24.6l-0.1-0.1l-0.1-0.1c-2.4-3.4-3.7-7.5-3.7-11.9v-16.2c0-1.8,1.3-3.1,3.1-3.1h0.4c1.6,0,2.9,1.4,2.9,3.1v16.2
		c0,1.9,0.2,3.4,0.8,4.8l0.2,0.5l14.2,24.8l14-24.6v-0.5l0.1-0.3c0.7-1.8,1-3.3,1-4.8v-16.2c0-1.7,1.3-3.1,2.9-3.1h0.4
		c1.6,0,2.9,1.4,2.9,3.1v16.2c0,4.2-1.1,8.1-3.3,11.4v0.1l-14.4,25.3l14.4,25.1v0.2c2.2,3.4,3.3,7.3,3.3,11.3v16
		c0,1.7-1.3,3.1-2.9,3.1H-147.7z"/>
	<path d="M-213.5,344.6c-11.9,0-21.5-9.6-21.5-21.5v-69.3c0-11.8,9.4-21.1,21.5-21.1c11.9,0,21.3,9.3,21.3,21.1v69.3
		C-192.2,335-201.7,344.6-213.5,344.6z M-213.5,239.2c-8.5,0-15.1,6.4-15.1,14.7v69.3c0,8.3,6.8,15.1,15.1,15.1
		c8.3,0,15.1-6.8,15.1-15.1v-69.3C-198.4,245.6-205,239.2-213.5,239.2z"/>
	<path d="M-280.1,344.6c-1.7,0-3.3-1.5-3.3-3V236.4c0-2,1.5-3.6,3.3-3.6h18.1c11.7,0,21.2,9.6,21.2,21.4v16.4c0,7.5-4,14.5-10,18.4
		c6.2,3.7,10,10.4,10,17.9v16.4c0,11.8-9.5,21.4-21.2,21.4H-280.1z M-261.9,338.2c8.3,0,15-6.7,15-15v-16.4
		c0-7.3-5.7-13.5-13.2-14.5c-0.3,0-1.1-0.1-1.7-0.1c-2.1-0.2-2.9-1.3-3.1-2.4l0-0.1v-1.3l0-0.1c0.2-1.3,1.4-2.3,3.1-2.4
		c0.7,0,1.6-0.1,1.6-0.1c7.3-0.9,13.1-7.6,13.1-15.2v-16.4c0-8.3-6.7-15-15-15l-15,0v99H-261.9z"/>
	<path d="M-471.1,344.6c-11.7,0-21.3-9.6-21.3-21.5v-68.8c0-11.9,9.5-21.5,21.3-21.5c11.9,0,21.5,9.6,21.5,21.5v4.2
		c0,1.6-1.4,2.9-3.1,2.9h-0.4c-1.5,0-2.9-1.3-2.9-2.9v-4.2c0-8.3-6.8-15.1-15.1-15.1c-8.3,0-15.1,6.8-15.1,15.1v68.8
		c0,8.3,6.8,15.1,15.1,15.1c8.3,0,15.1-6.8,15.1-15.1v-31h-8.3c-1.5,0-2.9-1.3-2.9-2.9v-0.7c0-1.5,1.3-2.9,2.9-2.9h11.6
		c1.7,0,3.1,1.3,3.1,2.9v34.5C-449.6,335-459.3,344.6-471.1,344.6z"/>
	<path d="M-441,344.6c-1.7,0-3.1-1.5-3.1-3.3V235.9c0-1.7,1.3-3.1,2.9-3.1h0.4c1.8,0,3.1,1.3,3.1,3.1v102.3h19.5
		c1.5,0,2.9,1.3,2.9,2.9v0.7c0,1.5-1.3,2.9-2.9,2.9H-441z"/>
	<path d="M-394.5,344.6c-11.9,0-21.5-9.6-21.5-21.5v-69.3c0-11.8,9.4-21.1,21.5-21.1c11.9,0,21.3,9.3,21.3,21.1v69.3
		C-373.2,335-382.7,344.6-394.5,344.6z M-394.5,239.2c-8.5,0-15.1,6.4-15.1,14.7v69.3c0,8.3,6.8,15.1,15.1,15.1
		c8.3,0,15.1-6.8,15.1-15.1v-69.3C-379.4,245.6-386,239.2-394.5,239.2z"/>
	<path d="M-306.5,344.6h-7.9c-0.9,0-1.9-0.4-2.5-1l-0.2-0.2l-7.7-14l3.6-6.4l8.7,15.5h4l11.3-19.4c1.7-3.2,1.9-7.4,1.9-7.4l0-76
		c0-1.7,1.2-2.9,2.9-2.9h0.4c1.5,0,2.9,1.3,2.9,2.9v76.1c0,0.6-0.1,5.9-2.7,10.4l-12.2,21.3l-0.2,0.2
		C-304.6,344.1-305.6,344.6-306.5,344.6z"/>
	<path d="M-350.3,344.6c-0.9,0-1.8-0.5-2.3-1l-0.2-0.2l-12.2-21.3c-2.6-4.5-2.7-9.8-2.7-10.4v-76.1c0-1.5,1.3-2.9,2.9-2.9h0.4
		c1.7,0,3.1,1.3,3.1,2.9v76.1c0,0,0,4.2,1.7,7.4l11.2,19.3h4l11-19.4c1.9-3.7,1.9-7.3,1.9-7.3v-22.9c0-1.5,1.3-2.9,2.9-2.9h0.7
		c1.6,0,2.9,1.3,2.9,2.9V311l0,0.1c-0.2,3-0.7,7.5-2.9,11.1l-11.9,21.2l-0.2,0.2c-0.6,0.6-1.6,1-2.5,1H-350.3z"/>
</g>
<g>
	<path fill="#939598" d="M-147.7,522.4c-1.6,0-2.9-1.4-2.9-3.1v-16c0-1.4-0.4-3.1-1-4.8l-0.1-0.3v-0.3l-14-24.8l-14.2,25.2l-0.1,0.3
		c-0.5,1.3-0.7,2.9-0.7,4.7v16c0,1.7-1.3,3.1-2.9,3.1h-0.4c-1.8,0-3.1-1.3-3.1-3.1v-16c0-4.2,1.3-8.3,3.6-11.8l0.1-0.2l0.2-0.2
		l13.8-24.4l-13.8-24.6l-0.1-0.1l-0.1-0.1c-2.4-3.4-3.7-7.5-3.7-11.9v-16.2c0-1.8,1.3-3.1,3.1-3.1h0.4c1.6,0,2.9,1.4,2.9,3.1v16.2
		c0,1.9,0.2,3.4,0.8,4.8l0.2,0.5l14.2,24.8l14-24.6V435l0.1-0.3c0.7-1.8,1-3.3,1-4.8v-16.2c0-1.7,1.3-3.1,2.9-3.1h0.4
		c1.6,0,2.9,1.4,2.9,3.1v16.2c0,4.2-1.1,8.1-3.3,11.4v0.1l-14.4,25.3l14.4,25.1v0.2c2.2,3.4,3.3,7.3,3.3,11.3v16
		c0,1.7-1.3,3.1-2.9,3.1H-147.7z"/>
	<path fill="#939598" d="M-213.5,522.4c-11.9,0-21.5-9.6-21.5-21.5v-69.3c0-11.8,9.4-21.1,21.5-21.1c11.9,0,21.3,9.3,21.3,21.1v69.3
		C-192.2,512.8-201.7,522.4-213.5,522.4z M-213.5,417c-8.5,0-15.1,6.4-15.1,14.7v69.3c0,8.3,6.8,15.1,15.1,15.1
		c8.3,0,15.1-6.8,15.1-15.1v-69.3C-198.4,423.4-205,417-213.5,417z"/>
	<path fill="#939598" d="M-280.1,522.4c-1.7,0-3.3-1.5-3.3-3V414.2c0-2,1.5-3.6,3.3-3.6h18.1c11.7,0,21.2,9.6,21.2,21.4v16.4
		c0,7.5-4,14.5-10,18.4c6.2,3.7,10,10.4,10,17.9V501c0,11.8-9.5,21.4-21.2,21.4H-280.1z M-261.9,516c8.3,0,15-6.7,15-15v-16.4
		c0-7.3-5.7-13.5-13.2-14.5c-0.3,0-1.1-0.1-1.7-0.1c-2.1-0.2-2.9-1.3-3.1-2.4l0-0.1v-1.3l0-0.1c0.2-1.3,1.4-2.3,3.1-2.4
		c0.7,0,1.6-0.1,1.6-0.1c7.3-0.9,13.1-7.6,13.1-15.2V432c0-8.3-6.7-15-15-15l-15,0v99H-261.9z"/>
	<path fill="#939598" d="M-471.1,522.4c-11.7,0-21.3-9.6-21.3-21.5v-68.8c0-11.9,9.5-21.5,21.3-21.5c11.9,0,21.5,9.6,21.5,21.5v4.2
		c0,1.6-1.4,2.9-3.1,2.9h-0.4c-1.5,0-2.9-1.3-2.9-2.9v-4.2c0-8.3-6.8-15.1-15.1-15.1c-8.3,0-15.1,6.8-15.1,15.1v68.8
		c0,8.3,6.8,15.1,15.1,15.1c8.3,0,15.1-6.8,15.1-15.1v-31h-8.3c-1.5,0-2.9-1.3-2.9-2.9v-0.7c0-1.5,1.3-2.9,2.9-2.9h11.6
		c1.7,0,3.1,1.3,3.1,2.9v34.5C-449.6,512.8-459.3,522.4-471.1,522.4z"/>
	<path fill="#939598" d="M-441,522.4c-1.7,0-3.1-1.5-3.1-3.3V413.7c0-1.7,1.3-3.1,2.9-3.1h0.4c1.8,0,3.1,1.3,3.1,3.1V516h19.5
		c1.5,0,2.9,1.3,2.9,2.9v0.7c0,1.5-1.3,2.9-2.9,2.9H-441z"/>
	<path fill="#939598" d="M-394.5,522.4c-11.9,0-21.5-9.6-21.5-21.5v-69.3c0-11.8,9.4-21.1,21.5-21.1c11.9,0,21.3,9.3,21.3,21.1v69.3
		C-373.2,512.8-382.7,522.4-394.5,522.4z M-394.5,417c-8.5,0-15.1,6.4-15.1,14.7v69.3c0,8.3,6.8,15.1,15.1,15.1
		c8.3,0,15.1-6.8,15.1-15.1v-69.3C-379.4,423.4-386,417-394.5,417z"/>
	<path fill="#939598" d="M-306.5,522.4h-7.9c-0.9,0-1.9-0.4-2.5-1l-0.2-0.2l-7.7-14l3.6-6.4l8.7,15.5h4l11.3-19.4
		c1.7-3.2,1.9-7.4,1.9-7.4l0-76c0-1.7,1.2-2.9,2.9-2.9h0.4c1.5,0,2.9,1.3,2.9,2.9v76.1c0,0.6-0.1,5.9-2.7,10.4l-12.2,21.3l-0.2,0.2
		C-304.6,521.9-305.6,522.4-306.5,522.4z"/>
	<path fill="#939598" d="M-350.3,522.4c-0.9,0-1.8-0.5-2.3-1l-0.2-0.2l-12.2-21.3c-2.6-4.5-2.7-9.8-2.7-10.4v-76.1
		c0-1.5,1.3-2.9,2.9-2.9h0.4c1.7,0,3.1,1.3,3.1,2.9v76.1c0,0,0,4.2,1.7,7.4l11.2,19.3h4l11-19.4c1.9-3.7,1.9-7.3,1.9-7.3v-22.9
		c0-1.5,1.3-2.9,2.9-2.9h0.7c1.6,0,2.9,1.3,2.9,2.9v22.2l0,0.1c-0.2,3-0.7,7.5-2.9,11.1l-11.9,21.2l-0.2,0.2c-0.6,0.6-1.6,1-2.5,1
		H-350.3z"/>
</g>
<g>
	<path fill="#00A651" d="M416.7,145.9c-1.6,0-2.9-1.4-2.9-3.1v-16c0-1.4-0.4-3.1-1-4.8l-0.1-0.3v-0.3l-14-24.8l-14.2,25.2l-0.1,0.3
		c-0.5,1.3-0.7,2.9-0.7,4.7v16c0,1.7-1.3,3.1-2.9,3.1h-0.4c-1.8,0-3.1-1.3-3.1-3.1v-16c0-4.2,1.3-8.3,3.6-11.8l0.1-0.2l0.2-0.2
		l13.8-24.4l-13.8-24.6l-0.1-0.1l-0.1-0.1c-2.4-3.4-3.7-7.5-3.7-11.9V37.2c0-1.8,1.3-3.1,3.1-3.1h0.4c1.6,0,2.9,1.4,2.9,3.1v16.2
		c0,1.9,0.2,3.4,0.8,4.8l0.2,0.5l14.2,24.8l14-24.6v-0.5l0.1-0.3c0.7-1.8,1-3.3,1-4.8V37.2c0-1.7,1.3-3.1,2.9-3.1h0.4
		c1.6,0,2.9,1.4,2.9,3.1v16.2c0,4.2-1.1,8.1-3.3,11.4v0.1l-14.4,25.3l14.4,25.1v0.2c2.2,3.4,3.3,7.3,3.3,11.3v16
		c0,1.7-1.3,3.1-2.9,3.1H416.7z"/>
	<path fill="#00A651" d="M350.9,145.9c-11.9,0-21.5-9.6-21.5-21.5V55.1c0-11.8,9.4-21.1,21.5-21.1c11.9,0,21.3,9.3,21.3,21.1v69.3
		C372.2,136.3,362.7,145.9,350.9,145.9z M350.9,40.5c-8.5,0-15.1,6.4-15.1,14.7v69.3c0,8.3,6.8,15.1,15.1,15.1
		c8.3,0,15.1-6.8,15.1-15.1V55.1C366,46.9,359.4,40.5,350.9,40.5z"/>
	<path fill="#00A651" d="M284.3,145.9c-1.7,0-3.3-1.5-3.3-3V37.7c0-2,1.5-3.6,3.3-3.6h18.1c11.7,0,21.2,9.6,21.2,21.4v16.4
		c0,7.5-4,14.5-10,18.4c6.2,3.7,10,10.4,10,17.9v16.4c0,11.8-9.5,21.4-21.2,21.4H284.3z M302.5,139.5c8.3,0,15-6.7,15-15v-16.4
		c0-7.3-5.7-13.5-13.2-14.5c-0.3,0-1.1-0.1-1.7-0.1c-2.1-0.2-2.9-1.3-3.1-2.4l0-0.1v-1.3l0-0.1c0.2-1.3,1.4-2.3,3.1-2.4
		c0.7,0,1.6-0.1,1.6-0.1c7.3-0.9,13.1-7.6,13.1-15.2V55.5c0-8.3-6.7-15-15-15l-15,0v99H302.5z"/>
	<path fill="#0093CB" d="M93.3,145.9c-11.7,0-21.3-9.6-21.3-21.5V55.6c0-11.9,9.5-21.5,21.3-21.5c11.9,0,21.5,9.6,21.5,21.5v4.2
		c0,1.6-1.4,2.9-3.1,2.9h-0.4c-1.5,0-2.9-1.3-2.9-2.9v-4.2c0-8.3-6.8-15.1-15.1-15.1c-8.3,0-15.1,6.8-15.1,15.1v68.8
		c0,8.3,6.8,15.1,15.1,15.1c8.3,0,15.1-6.8,15.1-15.1v-31h-8.3c-1.5,0-2.9-1.3-2.9-2.9v-0.7c0-1.5,1.3-2.9,2.9-2.9h11.6
		c1.7,0,3.1,1.3,3.1,2.9v34.5C114.8,136.3,105.1,145.9,93.3,145.9z"/>
	<path fill="#0093CB" d="M123.4,145.9c-1.7,0-3.1-1.5-3.1-3.3V37.2c0-1.7,1.3-3.1,2.9-3.1h0.4c1.8,0,3.1,1.3,3.1,3.1v102.3h19.5
		c1.5,0,2.9,1.3,2.9,2.9v0.7c0,1.5-1.3,2.9-2.9,2.9H123.4z"/>
	<path fill="#0093CB" d="M169.9,145.9c-11.9,0-21.5-9.6-21.5-21.5V55.1c0-11.8,9.4-21.1,21.5-21.1c11.9,0,21.3,9.3,21.3,21.1v69.3
		C191.2,136.3,181.7,145.9,169.9,145.9z M169.9,40.5c-8.5,0-15.1,6.4-15.1,14.7v69.3c0,8.3,6.8,15.1,15.1,15.1
		c8.3,0,15.1-6.8,15.1-15.1V55.1C185,46.9,178.4,40.5,169.9,40.5z"/>
	<path fill="#0093CB" d="M257.9,145.9h-7.9c-0.9,0-1.9-0.4-2.5-1l-0.2-0.2l-7.7-14l3.6-6.4l8.7,15.5h4l11.3-19.4
		c1.7-3.2,1.9-7.4,1.9-7.4l0-76c0-1.7,1.2-2.9,2.9-2.9h0.4c1.5,0,2.9,1.3,2.9,2.9V113c0,0.6-0.1,5.9-2.7,10.4l-12.2,21.3l-0.2,0.2
		C259.8,145.4,258.8,145.9,257.9,145.9z"/>
	<path fill="#0093CB" d="M214.1,145.9c-0.9,0-1.8-0.5-2.3-1l-0.2-0.2l-12.2-21.3c-2.6-4.5-2.7-9.8-2.7-10.4V37
		c0-1.5,1.3-2.9,2.9-2.9h0.4c1.7,0,3.1,1.3,3.1,2.9V113c0,0,0,4.2,1.7,7.4l11.2,19.3h4l11-19.4c1.9-3.7,1.9-7.3,1.9-7.3V90.1
		c0-1.5,1.3-2.9,2.9-2.9h0.7c1.6,0,2.9,1.3,2.9,2.9v22.2l0,0.1c-0.2,3-0.7,7.5-2.9,11.1l-11.9,21.2l-0.2,0.2c-0.6,0.6-1.6,1-2.5,1
		H214.1z"/>
</g>
</svg>
